<svg xmlns="http://www.w3.org/2000/svg" x="0px" y="0px"
width="24" height="24"
viewBox="0 0 172 172"
style=" fill:#000000;"><g fill="none" fill-rule="nonzero" stroke="none" stroke-width="1" stroke-linecap="butt" stroke-linejoin="miter" stroke-miterlimit="10" stroke-dasharray="" stroke-dashoffset="0" font-family="none" font-weight="none" font-size="none" text-anchor="none" style="mix-blend-mode: normal"><path d="M0,172v-172h172v172z" fill="none">
</path><g fill="#eeeeee"><path d="M86,14.33333c-39.56,0 -71.66667,32.10667 -71.66667,71.66667c0,39.56 32.10667,71.66667 71.66667,71.66667c39.56,0 71.66667,-32.10667 71.66667,-71.66667c0,-39.56 -32.10667,-71.66667 -71.66667,-71.66667zM93.16667,136.16667h-14.33333v-14.33333h14.33333zM108.00167,80.625l-6.45,6.59333c-5.16,5.23167 -8.385,9.53167 -8.385,20.28167h-14.33333v-3.58333c0,-7.88333 3.225,-15.05 8.385,-20.28167l8.88667,-9.03c2.65167,-2.58 4.22833,-6.16333 4.22833,-10.105c0,-7.88333 -6.45,-14.33333 -14.33333,-14.33333c-7.88333,0 -14.33333,6.45 -14.33333,14.33333h-14.33333c0,-15.83833 12.82833,-28.66667 28.66667,-28.66667c15.83833,0 28.66667,12.82833 28.66667,28.66667c0,6.30667 -2.58,12.04 -6.665,16.125z"></path></g></g></svg>